<?xml version="1.0" encoding="utf-8"?>
<!-- Generator: Adobe Illustrator 23.0.1, SVG Export Plug-In . SVG Version: 6.00 Build 0)  -->
<svg version="1.1" id="Layer_1" xmlns="http://www.w3.org/2000/svg" xmlns:xlink="http://www.w3.org/1999/xlink" x="0px" y="0px"
	 viewBox="0 0 142.4 59.5" style="enable-background:new 0 0 142.4 59.5;" xml:space="preserve">
<style type="text/css">
	.st0{fill:#FFFFFF;}
	.st1{font-family:'MyriadPro-Regular';}
	.st2{font-size:27.7202px;}
</style>
<title>clear-view-escapes</title>
<path class="st0" d="M19.2,27.3v4.8H5.6v5.5h12.4V42H5.6v6.3h13.9V53H0V27.3H19.2z"/>
<path class="st0" d="M27.1,48.4c0.2,0.4,0.5,0.7,0.9,1c0.4,0.3,0.8,0.4,1.2,0.6c0.5,0.1,1,0.2,1.5,0.2c0.4,0,0.8,0,1.1-0.1
	c0.4-0.1,0.7-0.2,1.1-0.4c0.3-0.2,0.6-0.4,0.8-0.8c0.2-0.3,0.3-0.7,0.3-1.1c-0.1-0.9-0.7-1.6-1.5-1.7c-1.4-0.5-2.8-0.9-4.3-1.2
	c-0.7-0.2-1.5-0.4-2.2-0.6c-0.7-0.2-1.3-0.5-1.9-0.9c-0.5-0.4-1-0.8-1.3-1.4c-0.4-0.6-0.5-1.3-0.5-2.1c-0.1-1,0.2-2.1,0.7-3
	c0.5-0.8,1.1-1.4,1.9-1.8c0.8-0.5,1.7-0.8,2.6-0.9c1-0.2,2-0.3,3-0.3c1,0,2,0.1,2.9,0.3c0.9,0.2,1.8,0.5,2.5,1
	c0.7,0.5,1.3,1.1,1.8,1.9c0.5,0.9,0.8,1.8,0.9,2.8h-4.9c0-0.8-0.4-1.6-1.1-2c-0.7-0.4-1.5-0.5-2.4-0.5c-0.3,0-0.6,0-0.9,0
	c-0.3,0-0.6,0.1-0.9,0.2c-0.3,0.1-0.5,0.3-0.7,0.5c-0.2,0.3-0.3,0.6-0.3,0.9c0,0.4,0.2,0.8,0.5,1.1c0.4,0.3,0.8,0.6,1.3,0.7
	c0.6,0.2,1.2,0.4,1.9,0.5l2.2,0.5c0.7,0.2,1.5,0.4,2.2,0.6c0.7,0.2,1.3,0.6,1.9,1c0.5,0.4,1,0.9,1.3,1.5c0.4,0.7,0.5,1.4,0.5,2.2
	c0.1,2-0.9,4-2.7,5.1c-0.8,0.5-1.8,0.9-2.7,1c-1,0.2-2.1,0.3-3.1,0.3c-1.1,0-2.1-0.1-3.2-0.3c-1-0.2-1.9-0.6-2.7-1.1
	c-0.8-0.5-1.5-1.2-2-2c-0.6-0.9-0.8-2-0.9-3.1h4.9C26.7,47.5,26.8,48,27.1,48.4z"/>
<path class="st0" d="M51,37.8c-0.7,0-1.4,0.2-2,0.6c-0.6,0.4-1,0.9-1.3,1.4c-0.4,0.6-0.6,1.3-0.7,1.9c-0.1,0.7-0.2,1.4-0.2,2.1
	c0,0.7,0.1,1.3,0.2,2c0.1,0.7,0.4,1.3,0.7,1.9c0.3,0.6,0.8,1,1.3,1.4c0.6,0.4,1.3,0.6,2,0.5c1,0.1,2.1-0.3,2.8-1
	c0.7-0.8,1.1-1.7,1.2-2.8h4.9c-0.2,2.2-1.2,4.2-2.9,5.7c-1.7,1.3-3.9,2-6.1,1.9c-1.3,0-2.6-0.2-3.8-0.7c-1.1-0.4-2.2-1.1-3-2
	c-0.8-0.9-1.5-1.9-1.9-3c-0.5-1.2-0.7-2.5-0.7-3.8c0-1.4,0.2-2.7,0.6-4c0.4-1.2,1.1-2.2,1.9-3.1c0.8-0.9,1.9-1.6,3-2.1
	c1.3-0.5,2.6-0.8,4-0.8c1.1,0,2.2,0.1,3.2,0.4c1,0.3,1.9,0.7,2.7,1.3c1.7,1.2,2.8,3.2,2.8,5.3h-5c-0.1-1.9-1.8-3.3-3.6-3.2
	C51.1,37.8,51,37.8,51,37.8z"/>
<path class="st0" d="M62.5,40.1c0-1.1,0.3-2.1,0.9-3c0.5-0.8,1.2-1.4,2-1.9c0.9-0.5,1.8-0.8,2.8-1c1-0.2,2-0.3,3.1-0.3
	c1,0,1.9,0.1,2.8,0.2c0.9,0.1,1.8,0.4,2.6,0.8c0.8,0.4,1.5,0.9,2,1.6c0.5,0.8,0.8,1.8,0.8,2.7v9.7c0,0.8,0,1.6,0.1,2.4
	c0,0.6,0.2,1.2,0.5,1.7h-5.2c-0.1-0.3-0.2-0.6-0.2-0.9c-0.1-0.3-0.1-0.6-0.1-0.9c-0.8,0.8-1.8,1.4-2.9,1.8c-1.1,0.3-2.2,0.5-3.4,0.5
	c-0.8,0-1.7-0.1-2.5-0.3c-0.7-0.2-1.4-0.5-2-1c-0.6-0.5-1-1.1-1.3-1.7C62.2,49.6,62,48.8,62,48c0-0.9,0.2-1.8,0.6-2.6
	c0.3-0.7,0.8-1.2,1.4-1.6c0.6-0.4,1.3-0.7,2-0.9c0.8-0.2,1.5-0.4,2.3-0.5c0.8-0.1,1.5-0.2,2.3-0.3c0.7-0.1,1.3-0.2,2-0.3
	c0.5-0.1,1-0.3,1.4-0.6c0.3-0.3,0.5-0.8,0.4-1.2c0-0.5-0.1-0.9-0.3-1.3c-0.2-0.3-0.4-0.5-0.7-0.7c-0.3-0.2-0.6-0.3-1-0.4
	c-0.4-0.1-0.9-0.1-1.3-0.1c-0.8,0-1.7,0.2-2.4,0.7c-0.6,0.5-1,1.3-1,2.2L62.5,40.1L62.5,40.1z M74.3,43.9c-0.2,0.2-0.5,0.4-0.8,0.5
	c-0.3,0.1-0.7,0.2-1,0.3c-0.4,0.1-0.8,0.2-1.2,0.2s-0.8,0.1-1.2,0.2c-0.4,0.1-0.8,0.2-1.1,0.3c-0.4,0.1-0.7,0.3-1,0.5
	c-0.3,0.2-0.5,0.5-0.7,0.8c-0.2,0.4-0.3,0.8-0.2,1.2c0,0.4,0.1,0.8,0.2,1.2c0.2,0.3,0.4,0.6,0.7,0.7c0.3,0.2,0.6,0.3,1,0.4
	c0.4,0.1,0.8,0.1,1.2,0.1c0.8,0,1.6-0.1,2.3-0.5c0.5-0.3,0.9-0.7,1.2-1.2c0.3-0.4,0.4-0.9,0.5-1.4c0.1-0.4,0.1-0.8,0.1-1.2
	L74.3,43.9L74.3,43.9z"/>
<path class="st0" d="M88.3,34.4v2.4h0.1c0.6-1,1.4-1.7,2.4-2.2c1-0.5,2.1-0.7,3.2-0.7c1.3,0,2.6,0.3,3.8,0.8c1,0.5,1.9,1.3,2.6,2.2
	c0.7,1,1.2,2,1.6,3.2c0.3,1.2,0.5,2.5,0.5,3.8c0,1.2-0.2,2.4-0.5,3.6c-0.3,1.1-0.8,2.1-1.5,3.1c-0.7,0.9-1.6,1.6-2.6,2.1
	c-1.1,0.5-2.3,0.8-3.6,0.8c-1.1,0-2.2-0.2-3.2-0.7c-1-0.5-1.8-1.2-2.4-2.1h0v8.8h-5.1V34.4H88.3z M94.9,49.2c0.6-0.3,1-0.8,1.4-1.4
	c0.4-0.6,0.6-1.2,0.7-1.9c0.1-0.7,0.2-1.5,0.2-2.2c0-0.7-0.1-1.5-0.2-2.2c-0.1-0.7-0.4-1.3-0.8-1.9c-0.4-0.6-0.8-1-1.4-1.4
	c-0.6-0.3-1.4-0.5-2.1-0.4c-0.7,0-1.5,0.2-2.1,0.5c-0.6,0.3-1,0.8-1.4,1.3c-0.4,0.6-0.6,1.2-0.7,1.9c-0.1,0.7-0.2,1.5-0.2,2.2
	c0,0.7,0.1,1.5,0.2,2.2c0.1,0.6,0.4,1.2,0.8,1.8C90.6,49.6,93,50.2,94.9,49.2z"/>
<path class="st0" d="M110.9,48.6c1.7,1.4,4.1,1.5,6,0.3c0.6-0.4,1.1-1,1.4-1.6h4.5c-0.5,1.9-1.7,3.6-3.3,4.8c-1.6,1-3.5,1.5-5.4,1.4
	c-1.4,0-2.7-0.2-4-0.7c-1.1-0.4-2.2-1.1-3-2c-0.8-0.9-1.5-1.9-1.9-3.1c-0.5-1.3-0.7-2.6-0.7-4c0-1.3,0.2-2.6,0.7-3.9
	c0.9-2.3,2.7-4.2,4.9-5.2c1.2-0.5,2.5-0.8,3.9-0.8c1.4,0,2.9,0.3,4.1,0.9c1.1,0.6,2.1,1.4,2.9,2.5c0.8,1.1,1.4,2.3,1.7,3.6
	c0.3,1.4,0.5,2.7,0.4,4.1h-13.5C109.6,46.3,110,47.6,110.9,48.6z M116.7,38.8c-0.7-0.7-1.8-1.1-2.8-1c-0.7,0-1.4,0.1-2,0.4
	c-0.5,0.2-0.9,0.6-1.3,1c-0.3,0.4-0.5,0.8-0.7,1.3c-0.1,0.4-0.2,0.8-0.2,1.2h8.3C117.8,40.7,117.3,39.6,116.7,38.8z"/>
<path class="st0" d="M130.4,48.4c0.2,0.4,0.5,0.7,0.9,1c0.4,0.3,0.8,0.4,1.2,0.6c0.5,0.1,1,0.2,1.5,0.2c0.4,0,0.8,0,1.1-0.1
	c0.4-0.1,0.7-0.2,1.1-0.4c0.3-0.2,0.6-0.4,0.8-0.7c0.2-0.3,0.3-0.7,0.3-1.1c-0.1-0.9-0.7-1.6-1.6-1.8c-1.4-0.5-2.8-0.9-4.2-1.2
	c-0.7-0.2-1.5-0.4-2.2-0.6c-0.7-0.2-1.3-0.5-1.9-0.9c-0.5-0.4-1-0.8-1.3-1.4c-0.4-0.6-0.5-1.3-0.5-2.1c-0.1-1,0.2-2.1,0.7-3
	c0.5-0.8,1.1-1.4,1.9-1.8c0.8-0.5,1.7-0.8,2.6-0.9c1-0.2,2-0.3,3-0.3c1,0,2,0.1,2.9,0.3c0.9,0.2,1.8,0.5,2.5,1
	c0.7,0.5,1.4,1.1,1.9,1.8c0.5,0.9,0.8,1.8,0.9,2.9h-4.9c0-0.8-0.4-1.6-1.1-2c-0.7-0.4-1.5-0.5-2.4-0.5c-0.3,0-0.6,0-0.9,0
	c-0.3,0-0.6,0.1-0.9,0.2c-0.3,0.1-0.5,0.3-0.7,0.5c-0.2,0.3-0.3,0.6-0.3,0.9c0,0.4,0.2,0.8,0.5,1.1c0.4,0.3,0.8,0.6,1.3,0.7
	c0.6,0.2,1.2,0.4,1.9,0.5l2.1,0.5c0.7,0.2,1.5,0.4,2.2,0.6c0.7,0.2,1.3,0.6,1.9,1c0.5,0.4,1,0.9,1.3,1.5c0.4,0.7,0.5,1.4,0.5,2.2
	c0.1,2-0.9,4-2.7,5c-0.8,0.5-1.8,0.9-2.7,1.1c-1,0.2-2.1,0.3-3.1,0.3c-1.1,0-2.1-0.1-3.2-0.3c-1-0.2-1.9-0.6-2.8-1.1
	c-0.8-0.5-1.5-1.2-2-2c-0.6-0.9-0.8-2-0.8-3.1h4.9C130,47.5,130.1,48,130.4,48.4z"/>
<path class="st0" d="M17.9-32.1c-0.1-0.5-0.3-1-0.5-1.4c-0.2-0.4-0.5-0.8-0.9-1.1c-0.4-0.3-0.8-0.6-1.3-0.7
	c-0.6-0.2-1.1-0.3-1.7-0.3c-0.9,0-1.7,0.2-2.5,0.6c-0.7,0.4-1.3,0.9-1.7,1.5c-0.5,0.7-0.8,1.4-1,2.2c-0.4,1.6-0.4,3.4,0,5
	c0.2,0.8,0.5,1.5,1,2.2c0.4,0.6,1,1.2,1.7,1.5c0.8,0.4,1.6,0.6,2.5,0.6c0.6,0,1.3-0.1,1.8-0.3c0.5-0.2,1-0.6,1.4-1
	c0.4-0.4,0.7-0.9,0.9-1.5c0.2-0.6,0.4-1.2,0.4-1.8h3c-0.1,1-0.3,2-0.7,2.9c-0.4,0.9-0.9,1.6-1.6,2.3c-0.7,0.6-1.5,1.2-2.4,1.5
	c-1,0.4-2,0.5-3,0.5c-1.2,0-2.5-0.2-3.6-0.7c-1-0.5-1.9-1.1-2.7-2c-0.8-0.9-1.3-1.9-1.7-3c-0.4-1.2-0.6-2.4-0.6-3.6
	c0-1.2,0.2-2.4,0.6-3.6c0.4-1.1,0.9-2.1,1.7-3c0.7-0.8,1.7-1.5,2.7-2c1.1-0.5,2.4-0.8,3.7-0.8c1,0,1.9,0.1,2.8,0.4
	c0.8,0.3,1.6,0.7,2.3,1.2c0.7,0.5,1.2,1.2,1.7,1.9c0.4,0.8,0.7,1.7,0.8,2.6L17.9-32.1L17.9-32.1z"/>
<path class="st0" d="M23.5-37.8h2.9V-20h-2.9V-37.8z"/>
<path class="st0" d="M31.7-25.7c0,0.5,0.1,1,0.2,1.5c0.1,0.4,0.3,0.9,0.6,1.2c0.3,0.4,0.7,0.6,1.1,0.8c0.5,0.2,1,0.3,1.5,0.3
	c0.7,0,1.4-0.2,2-0.6c0.5-0.4,0.9-1,1.1-1.6h2.7c-0.3,1.3-1,2.5-2.1,3.3c-0.5,0.4-1.1,0.7-1.7,0.9c-0.6,0.2-1.3,0.3-2,0.3
	c-0.9,0-1.8-0.2-2.7-0.5c-0.8-0.3-1.4-0.8-2-1.4c-0.6-0.6-1-1.3-1.3-2.1c-0.3-0.9-0.4-1.8-0.4-2.8c0-0.9,0.1-1.8,0.4-2.6
	c0.3-0.8,0.7-1.5,1.2-2.2c1.1-1.3,2.8-2,4.6-2c1,0,1.9,0.2,2.7,0.6c0.8,0.4,1.5,1,2,1.7c0.5,0.7,0.9,1.5,1.2,2.4
	c0.2,0.9,0.3,1.9,0.2,2.8H31.7L31.7-25.7z M38.4-27.6c0-0.4-0.1-0.9-0.3-1.3c-0.1-0.4-0.4-0.8-0.7-1.1c-0.3-0.3-0.6-0.6-1-0.8
	C36-30.9,35.6-31,35.1-31c-0.5,0-0.9,0.1-1.4,0.3c-0.4,0.2-0.8,0.4-1,0.7c-0.3,0.3-0.5,0.7-0.7,1.1c-0.2,0.4-0.3,0.9-0.3,1.4
	C31.7-27.6,38.4-27.6,38.4-27.6z"/>
<path class="st0" d="M54.2-22.8c0,0.3,0,0.5,0.1,0.8c0.1,0.2,0.3,0.3,0.5,0.2h0.3c0.1,0,0.3,0,0.4,0v2l-0.4,0l-0.5,0.1l-0.5,0.1
	h-0.4c-0.5,0-1-0.1-1.5-0.4c-0.4-0.3-0.7-0.7-0.8-1.2c-0.6,0.6-1.3,1-2.1,1.2c-0.8,0.2-1.6,0.4-2.4,0.4c-0.6,0-1.1-0.1-1.7-0.2
	c-0.5-0.1-1-0.4-1.4-0.7c-0.4-0.3-0.8-0.7-1-1.2c-0.2-0.5-0.4-1.1-0.3-1.7c0-0.7,0.1-1.4,0.4-2c0.3-0.5,0.7-0.9,1.2-1.2
	c0.5-0.3,1-0.5,1.6-0.6c0.6-0.1,1.2-0.2,1.8-0.3c0.5-0.1,1-0.2,1.5-0.2c0.4,0,0.8-0.1,1.2-0.2c0.3-0.1,0.6-0.2,0.8-0.4
	c0.2-0.3,0.3-0.6,0.3-0.9c0-0.3-0.1-0.6-0.3-0.9c-0.2-0.2-0.4-0.4-0.7-0.5c-0.3-0.1-0.6-0.2-0.9-0.2c-0.3,0-0.6-0.1-0.9-0.1
	c-0.7,0-1.4,0.1-2,0.5c-0.5,0.4-0.8,0.9-0.9,1.5h-2.8c0-0.7,0.2-1.4,0.6-2.1c0.3-0.5,0.8-1,1.3-1.3c0.6-0.3,1.2-0.6,1.8-0.7
	c0.7-0.1,1.4-0.2,2.1-0.2c0.6,0,1.3,0.1,1.9,0.2c0.6,0.1,1.1,0.3,1.7,0.6c0.5,0.3,0.9,0.7,1.2,1.2c0.3,0.5,0.5,1.2,0.5,1.8V-22.8z
	 M51.4-26.4c-0.5,0.3-1,0.5-1.6,0.5c-0.7,0.1-1.3,0.1-1.9,0.3c-0.3,0-0.6,0.1-0.9,0.2c-0.3,0.1-0.5,0.2-0.8,0.4
	c-0.2,0.2-0.4,0.4-0.5,0.6c-0.1,0.3-0.2,0.6-0.2,0.9c0,0.3,0.1,0.6,0.3,0.8c0.2,0.2,0.4,0.4,0.7,0.5c0.3,0.1,0.6,0.2,0.8,0.3
	c0.3,0,0.6,0.1,0.8,0.1c0.3,0,0.7,0,1-0.1c0.4-0.1,0.7-0.2,1.1-0.4c0.3-0.2,0.6-0.5,0.8-0.8c0.2-0.3,0.3-0.7,0.3-1.1
	C51.4-24.3,51.4-26.4,51.4-26.4z"/>
<path class="st0" d="M57.3-32.9H60v2.5H60c0.1-0.4,0.3-0.7,0.5-1c0.3-0.3,0.5-0.6,0.9-0.9c0.3-0.3,0.7-0.5,1.1-0.7
	c0.4-0.2,0.8-0.2,1.3-0.2c0.2,0,0.5,0,0.7,0h0.4v2.8l-0.7-0.1c-0.2,0-0.4,0-0.6,0c-0.5,0-0.9,0.1-1.4,0.3c-0.4,0.2-0.8,0.4-1.1,0.8
	c-0.3,0.4-0.6,0.9-0.8,1.4c-0.2,0.6-0.3,1.3-0.3,1.9v6.1h-2.9V-32.9z"/>
<path class="st0" d="M71.4-37.8h3.2l4.5,14.1h0.1l4.5-14.1h3.2L80.8-20h-3.5L71.4-37.8z"/>
<path class="st0" d="M88.7-37.8h2.8v2.7h-2.8V-37.8z M88.7-32.9h2.8V-20h-2.8V-32.9L88.7-32.9z"/>
<path class="st0" d="M96.8-25.7c0,0.5,0.1,1,0.2,1.5c0.1,0.4,0.3,0.9,0.6,1.2c0.3,0.4,0.7,0.6,1.1,0.8c0.5,0.2,1,0.3,1.6,0.3
	c0.7,0,1.4-0.2,2-0.5c0.5-0.4,0.9-1,1.1-1.6h2.7c-0.3,1.3-1,2.5-2.1,3.3c-0.5,0.4-1.1,0.7-1.7,0.9c-0.6,0.2-1.3,0.3-2,0.3
	c-0.9,0-1.8-0.2-2.7-0.5c-0.8-0.3-1.4-0.8-2-1.4c-0.6-0.6-1-1.4-1.2-2.1c-0.3-0.9-0.4-1.8-0.4-2.8c0-0.9,0.1-1.8,0.4-2.6
	c0.3-0.8,0.7-1.5,1.2-2.2c1.1-1.3,2.8-2,4.6-2c1,0,1.9,0.2,2.7,0.6c0.8,0.4,1.5,1,2,1.7c0.5,0.7,0.9,1.5,1.2,2.4
	c0.2,0.9,0.3,1.9,0.2,2.8L96.8-25.7L96.8-25.7z M103.5-27.6c0-0.4-0.1-0.9-0.3-1.3c-0.1-0.4-0.4-0.8-0.7-1.1c-0.3-0.3-0.6-0.6-1-0.8
	c-0.4-0.2-0.9-0.3-1.3-0.3c-0.5,0-0.9,0.1-1.4,0.3c-0.4,0.2-0.7,0.4-1,0.7c-0.3,0.3-0.5,0.7-0.7,1.1c-0.2,0.4-0.3,0.9-0.3,1.4
	L103.5-27.6L103.5-27.6z"/>
<path class="st0" d="M107.3-32.9h3l2.5,9.7l0,0l2.4-9.7h3l2.3,9.7l0,0l2.7-9.7h2.9l-4,12.9h-2.9l-2.4-9.6l0,0l-2.4,9.6h-3
	L107.3-32.9z"/>
<text transform="matrix(1 0 0 1 17.0349 23.586)" class="st0 st1 st2">Travel NZ</text>
</svg>
