<?xml version="1.0" encoding="utf-8"?>
<!-- Generator: Adobe Illustrator 23.0.1, SVG Export Plug-In . SVG Version: 6.00 Build 0)  -->
<svg version="1.1" id="Layer_1" xmlns="http://www.w3.org/2000/svg" xmlns:xlink="http://www.w3.org/1999/xlink" x="0px" y="0px"
	 viewBox="0 0 64 64" style="enable-background:new 0 0 64 64;" xml:space="preserve">
<style type="text/css">
	.st0{fill:#FF9D00;}
</style>
<title>globe</title>
<path class="st0" d="M32,0C14.3,0,0,14.3,0,32s14.3,32,32,32s32-14.3,32-32S49.7,0,32,0z M32,8c2.6,0.1,5.1,0.6,7.5,1.5
	c-1.7,1.6-3.6,3-3.3,4.5s5.5,1,5.5,4c0,2.2-3.4,2.8-1,5.3c2.8,2.8-5.1,7.8-5.3,11.5c-0.2,6.6,6.7,7.8,12.2,7.8c3.4,0,4.2,1.6,4,3.5
	c-4.6,6.3-11.9,10.1-19.8,10c-2.9,0-5.8-0.6-8.5-1.8c1.8-3.5-2.2-10.5-6-12.7c-1.8-1.8-5.8-1.1-8-2c-0.8-2.2-1.3-4.4-1.5-6.7
	c0.3-0.5,0.8-0.7,1.3-0.7c1.5,0,3.6,3,4.7,2.7c1.4-0.3-6-10.5-2.5-12.5c1.6-1,4.8,3.1,3.8-1.3c-1-4.1,2.9-2.2,5.3-3.3
	c2.1-0.9,3.6-3.3,1-4.7c-0.7-0.4-1.2-0.9-1.8-1.5C23.4,9.3,27.7,8.1,32,8L32,8z M50.5,16.7c1.4,1.8,2.6,3.7,3.5,5.8v0.2
	c-0.5,0.6-1.1,1.2-1.8,1.8c-2.2,2.2-2.6-1.7-3.5-2.5c-1-1-4.8,0.2-5.3-1C42.9,19.5,47.4,17.6,50.5,16.7z"/>
</svg>
