<?xml version="1.0" encoding="utf-8"?>
<!-- Generator: Adobe Illustrator 23.0.1, SVG Export Plug-In . SVG Version: 6.00 Build 0)  -->
<svg version="1.1" id="Layer_1" xmlns="http://www.w3.org/2000/svg" xmlns:xlink="http://www.w3.org/1999/xlink" x="0px" y="0px"
	 viewBox="0 0 60 64" style="enable-background:new 0 0 60 64;" xml:space="preserve">
<style type="text/css">
	.st0{fill:#FF9D00;}
</style>
<title>wifi</title>
<path class="st0" d="M29.9,0C19.3,0,8.9,3,0,8.7l4.2,6.5c7.7-4.8,16.6-7.4,25.7-7.3C39,7.8,48,10.3,55.8,15.2L60,8.7
	C51,3,40.5,0,29.9,0z M29.9,24c-6,0-11.9,1.7-17,5l4.2,6.7c3.8-2.5,8.2-3.7,12.7-3.7c4.6,0,9.1,1.3,13,3.8L47,29
	C41.9,25.7,35.9,24,29.9,24L29.9,24L29.9,24z M29.9,48c-4.4,0-8,3.6-8,8s3.6,8,8,8s8-3.6,8-8l0,0C37.9,51.6,34.3,48,29.9,48z"/>
</svg>
