<?xml version="1.0" encoding="utf-8"?>
<!-- Generator: Adobe Illustrator 23.0.1, SVG Export Plug-In . SVG Version: 6.00 Build 0)  -->
<svg version="1.1" id="Layer_1" xmlns="http://www.w3.org/2000/svg" xmlns:xlink="http://www.w3.org/1999/xlink" x="0px" y="0px"
	 viewBox="0 0 64 64" style="enable-background:new 0 0 64 64;" xml:space="preserve">
<style type="text/css">
	.st0{fill:#FF9D00;}
</style>
<title>rain</title>
<path class="st0" d="M36,0C26.4,0,18,6.6,16,16C7.1,16,0,23.2,0,32c0,4,1.5,7.8,4.3,10.7C6.4,40.9,9.1,40,12,40c1.5,0,3.1,0.3,4.5,1
	c1.4-5.3,6.1-9,11.5-9c5.4,0.1,10.1,3.8,11.5,9c1.4-0.6,2.9-1,4.5-1c4.9,0,9.2,3,11,7.5c5.2-1.4,8.9-6.1,9-11.5c0-5.2-3.4-10.3-8-12
	v-4C56,9,47,0,36,0L36,0z M26.7,40c-1.7,0.6-2.8,2.2-2.7,4v16c0,2.2,1.8,4,4,4s4-1.8,4-4l0,0V44c0-2.2-1.7-4-3.9-4.1
	c-0.3,0-0.5,0-0.8,0.1H26.7z M10.7,48C9,48.6,7.9,50.2,8,52v8c0,2.2,1.8,4,4,4s4-1.8,4-4l0,0v-8c0-2.2-1.7-4-3.9-4.1
	c-0.3,0-0.5,0-0.8,0.1H10.7L10.7,48z M42.7,48c-1.7,0.6-2.8,2.2-2.7,4v8c0,2.2,1.8,4,4,4s4-1.8,4-4v-8c0-2.2-1.7-4-3.9-4.1
	c-0.3,0-0.5,0-0.8,0.1H42.7L42.7,48z"/>
</svg>
